<svg xmlns="http://www.w3.org/2000/svg" viewBox="0 0 320 200" fill="none" role="img" aria-label="Umbrella protecting a piggy bank from rain">
  <!-- rain -->
  <g stroke="#4a3f47" stroke-width="3" stroke-linecap="round">
    <line x1="40" y1="18" x2="34" y2="34"/><line x1="80" y1="10" x2="74" y2="26"/>
    <line x1="250" y1="14" x2="244" y2="30"/><line x1="288" y1="22" x2="282" y2="38"/>
    <line x1="30" y1="58" x2="24" y2="74"/><line x1="292" y1="62" x2="286" y2="78"/>
  </g>
  <!-- umbrella -->
  <path d="M60 92 C70 44 250 44 260 92 C236 76 216 76 200 92 C188 78 172 78 160 92 C148 78 132 78 120 92 C104 76 84 76 60 92 Z" fill="#6b46ff" stroke="#181016" stroke-width="3" stroke-linejoin="round"/>
  <line x1="160" y1="56" x2="160" y2="40" stroke="#181016" stroke-width="3" stroke-linecap="round"/>
  <line x1="160" y1="92" x2="160" y2="118" stroke="#181016" stroke-width="3"/>
  <!-- piggy -->
  <ellipse cx="160" cy="152" rx="52" ry="34" fill="#ffe6ee" stroke="#181016" stroke-width="3"/>
  <circle cx="200" cy="146" r="4" fill="#181016"/>
  <ellipse cx="214" cy="156" rx="9" ry="7" fill="#ff6f9c" stroke="#181016" stroke-width="2.5"/>
  <rect x="146" y="116" width="28" height="7" rx="3" fill="#181016"/>
  <path d="M120 180 l0 8 M196 180 l0 8" stroke="#181016" stroke-width="4" stroke-linecap="round"/>
  <path d="M118 130 q-12 -10 -8 -20" stroke="#181016" stroke-width="3" fill="none" stroke-linecap="round"/>
  <text x="160" y="160" font-family="Arial, sans-serif" font-size="16" font-weight="800" fill="#c2185b" text-anchor="middle">$</text>
</svg>
